<?xml version="1.0" encoding="UTF-8"?>
<svg width="4320" height="1080" version="1.1" viewBox="0 0 1143 285.75" xmlns="http://www.w3.org/2000/svg" xmlns:cc="http://creativecommons.org/ns#" xmlns:dc="http://purl.org/dc/elements/1.1/" xmlns:rdf="http://www.w3.org/1999/02/22-rdf-syntax-ns#">
 <metadata>
  <rdf:RDF>
   <cc:Work rdf:about="">
    <dc:format>image/svg+xml</dc:format>
    <dc:type rdf:resource="http://purl.org/dc/dcmitype/StillImage"/>
    <dc:title/>
   </cc:Work>
  </rdf:RDF>
 </metadata>
 <path d="m26.458 26.458h52.917l89.958 232.83h-52.917z" fill="#ffffff"/>
 <path d="m206.37 26.458-50.27 130.11 26.458 68.479 76.728-198.59z" fill="#ffffff" stroke-width=".26458"/>
 <text fill="#000000" font-family="Aileron" font-size="10.583px" style="line-height:1.25;shape-inside:url(#rect24);white-space:pre" xml:space="preserve"/>
 <g transform="matrix(1.11 0 0 1.11 -4.3691 510.13)" fill="#ffffff" style="shape-inside:url(#rect66);white-space:pre" aria-label="Recvo">
  <path d="m393.82-314.19h-44.183v76.093h-24.934v-188.1h62.27q31.781 0 48.834 14.469 17.182 14.469 17.182 42.116 0 17.57-9.5601 30.618-9.4309 13.048-26.355 19.508l44.183 79.84v1.5503h-26.613zm-44.183-20.283h38.111q18.474 0 29.326-9.5601 10.981-9.5601 10.981-25.58 0-17.441-10.464-26.743-10.335-9.3017-29.972-9.4309h-37.982z"/>
  <path d="m542-235.51q-28.422 0-46.25-18.603-17.828-18.733-17.828-49.997v-4.3925q0-20.8 7.8806-37.078 8.0098-16.407 22.221-25.58 14.34-9.3017 31.006-9.3017 27.259 0 42.375 17.958 15.115 17.958 15.115 51.418v9.9477h-94.697q0.51676 20.671 12.015 33.46 11.627 12.661 29.456 12.661 12.661 0 21.446-5.1676t15.374-13.694l14.599 11.369q-17.57 27.001-52.71 27.001zm-2.9714-125.32q-14.469 0-24.288 10.594-9.8185 10.464-12.144 29.456h70.021v-1.8087q-1.0335-18.216-9.8185-28.164-8.785-10.077-23.771-10.077z"/>
  <path d="m680.24-255.02q12.79 0 22.35-7.7514 9.5601-7.7515 10.594-19.379h22.608q-0.64595 12.015-8.2682 22.867-7.6223 10.852-20.412 17.312-12.661 6.4595-26.872 6.4595-28.551 0-45.475-18.991-16.795-19.12-16.795-52.193v-4.0049q0-20.412 7.4931-36.303 7.4931-15.89 21.446-24.675 14.082-8.785 33.202-8.785 23.513 0 39.016 14.082 15.632 14.082 16.666 36.561h-22.608q-1.0335-13.565-10.335-22.221-9.1726-8.785-22.738-8.785-18.216 0-28.293 13.177-9.9477 13.048-9.9477 37.853v4.5217q0 24.159 9.9477 37.207t28.422 13.048z"/>
  <path d="m808.78-270.52 34.623-107.36h24.417l-50.126 139.78h-18.216l-50.643-139.78h24.417z"/>
  <path d="m882.55-309.28q0-20.541 8.0098-36.949 8.139-16.407 22.479-25.321 14.469-8.9142 32.944-8.9142 28.551 0 46.121 19.766 17.699 19.766 17.699 52.581v1.6795q0 20.412-7.8807 36.69-7.7514 16.149-22.35 25.192-14.469 9.0434-33.331 9.0434-28.422 0-46.121-19.766-17.57-19.766-17.57-52.322zm24.03 2.8422q0 23.254 10.723 37.336 10.852 14.082 28.939 14.082 18.216 0 28.939-14.211 10.723-14.34 10.723-40.049 0-22.996-10.981-37.207-10.852-14.34-28.939-14.34-17.699 0-28.551 14.082t-10.852 40.308z"/>
 </g>
</svg>
